<svg width="67" height="64" viewBox="0 0 67 64" fill="none" xmlns="http://www.w3.org/2000/svg">
<path d="M42.6318 31.6917H42.6298L37.9894 31.6916H25.618C22.3259 31.6916 18.7395 33.394 16.2974 35.9161C14.4655 37.808 12.929 39.4889 11.6866 40.9617C11.6363 41.0213 11.6313 41.0986 11.6313 41.1443C11.6312 41.1993 11.6396 41.2634 11.6531 41.3323C11.6802 41.4713 11.7325 41.6534 11.8048 41.8694C11.9499 42.3027 12.1817 42.8901 12.476 43.5769C13.0651 44.9514 13.909 46.7345 14.8225 48.5011C15.7357 50.2672 16.7205 52.0207 17.5915 53.3342C18.0266 53.9904 18.4364 54.5414 18.7971 54.9301C18.9774 55.1242 19.1491 55.282 19.3091 55.3922C19.4661 55.5004 19.6283 55.5744 19.7861 55.5744H19.8178H19.8496H19.8814H19.9134H19.9453H19.9774H20.0095H20.0417H20.0739H20.1062H20.1385H20.171H20.2034H20.236H20.2686H20.3012H20.334H20.3667H20.3996H20.4325H20.4655H20.4985H20.5316H20.5648H20.598H20.6313H20.6646H20.698H20.7315H20.765H20.7986H20.8323H20.866H20.8997H20.9336H20.9675H21.0014H21.0355H21.0696H21.1037H21.1379H21.1722H21.2065H21.2409H21.2754H21.3099H21.3445H21.3791H21.4138H21.4486H21.4834H21.5183H21.5533H21.5883H21.6234H21.6585H21.6937H21.729H21.7643H21.7997H21.8351H21.8706H21.9062H21.9419H21.9775H22.0133H22.0491H22.085H22.121H22.157H22.193H22.2292H22.2654H22.3016H22.3379H22.3743H22.4107H22.4472H22.4838H22.5204H22.5571H22.5939H22.6307H22.6676H22.7045H22.7415H22.7785H22.8157H22.8528H22.8901H22.9274H22.9648H23.0022H23.0397H23.0772H23.1149H23.1525H23.1903H23.2281H23.2659H23.3039H23.3419H23.3799H23.418H23.4562H23.4944H23.5327H23.5711H23.6095H23.648H23.6865H23.7251H23.7638H23.8025H23.8413H23.8802H23.9191H23.9581H23.9971H24.0362H24.0754H24.1146H24.1539H24.1932H24.2327H24.2721H24.3117H24.3513H24.3909H24.4306H24.4704H24.5103H24.5502H24.5902H24.6302H24.6703H24.7104H24.7507H24.7909H24.8313H24.8717H24.9121H24.9527H24.9933H25.0339H25.0746H25.1154H25.1562H25.1971H25.2381H25.2791H25.3202H25.3613H25.4025H25.4438H25.4851H25.5265H25.568H25.6095H25.6511H25.6927H25.7344H25.7762H25.818H25.8599H25.9019H25.9439H25.9859H26.0281H26.0703H26.1125H26.1549H26.1972H26.2397H26.2822H26.3248H26.3674H26.4101H26.4529H26.4957H26.5385H26.5815H26.6245H26.6676H26.7107H26.7539H26.7971H26.8404H26.8838H26.9272H26.9707H27.0143H27.0579H27.1016H27.1454H27.1892H27.233H27.277H27.321H27.365H27.4091H27.4533H27.4976H27.5419H27.5862H27.6307H27.6751H27.7197H27.7643H27.809H27.8537H27.8985H27.9434H27.9883H28.0333H28.0783H28.1234H28.1686H28.2138H28.2591H28.3045H28.3499H28.3954H28.4409H28.4865H28.5322H28.5779H28.6237H28.6696H28.7155H28.7615H28.8075H28.8536H28.8998H28.946H28.9923H29.0386H29.085H29.1315H29.178H29.2246H29.2713H29.318H29.3648H29.4116H29.4585H29.5055H29.5525H29.5996H29.6468H29.694H29.7412H29.7886H29.836H29.8834H29.931H29.9786H30.0262H30.0739H30.1217H30.1695H30.2174H30.2654H30.3134H30.3615H30.4096H30.4578H30.5061H30.5544H30.6028H30.6512H30.6998H30.7483H30.797H30.8457H30.8944H30.9433H30.9921H31.0411H31.0901H31.1392H31.1883H31.2375H31.2868H31.3361H31.3855H31.4349H31.4844H31.534H31.5836H31.6333H31.683H31.7329H31.7827H31.8327H31.8827H31.9327H31.9829H32.033H32.0833H32.1336H32.184H32.2344H32.2849H32.3355H32.3861H32.4368H32.4875H32.5383H32.5892H32.6401H32.6911H32.7422H32.7933H32.8444H32.8957H32.947H32.9983H33.0498H33.1013H33.1528H33.2044H33.2561H33.3078H33.3596H33.4115H33.4634H33.5154H33.5674H33.6195H33.6717H33.7239H33.7762H33.8286H33.881H33.9335H33.986H34.0386H34.0913H34.144H34.1968H34.2496H34.3025H34.3555H34.4085H34.4616H34.5148H34.568H34.6213H34.6746H34.728H34.7815H34.835H34.8886H34.9423H34.996H35.0498H35.1036H35.1575H35.2115H35.2655H35.3196H35.3737H35.4279H35.4822H35.5366H35.5909H35.6454H35.6999H35.7545H35.8092H35.8639H35.9186H35.9735H36.0283H36.0833H36.1383H36.1934H36.2485H36.3037H36.359H36.4143H36.4697H36.5252H36.5807H36.6362H36.6919H36.7476H36.8033H36.8592H36.915H36.971H37.027H37.0831H37.1392H37.1954H37.2516H37.3079H37.3643H37.4208H37.4773H37.5338H37.5905H37.6471H37.7039H37.7607H37.8176H37.8745H37.9315H37.9886H38.0457H38.1029H38.1601H38.2174H38.2748H38.3322H38.3897H38.4473H38.5049H38.5626H38.6203H38.6781H38.736H38.7939H38.8519H38.9099H38.968H39.0262H39.0845H39.1427H39.2011H39.2595H39.318H39.3766H39.4352H39.4938H39.5526H39.6114H39.6702H39.7291H39.7881H39.8471H39.9062H39.9654H40.0246H40.0839H40.1433H40.2027H40.2622H40.3217H40.3813H40.441H40.5007H40.5605H40.6203H40.6802H40.7402H40.8002H40.8603H40.9205H40.9807H41.041H41.1013H41.1617H41.2222H41.2827H41.3433H41.4039H41.4646H41.5254H41.5863H41.6472H41.7081H41.7691H41.8302H41.8914H41.9526H42.0138H42.0752H42.1366H42.198H42.2595H42.3211H42.3828H42.4445H42.5062H42.5681H42.6299H42.6919H42.7539H42.816H42.8781H42.9403H43.0026H43.0649H43.1273H43.1897H43.2522H43.3148H43.3774H43.4401H43.5029H43.5657H43.6286H43.6915H43.7545H43.8176H43.8807H43.9439H44.0072H44.0705H44.1338C46.826 55.5744 49.8093 53.7335 53.2523 50.4665C54.8158 48.9829 56.4512 47.2223 58.2209 45.155C59.1101 44.1161 60.733 42.121 62.1839 40.3269C62.7011 39.6874 63.1961 39.0738 63.6284 38.5379C64.4111 37.5677 64.9886 36.8519 65.1208 36.6972C67.5251 33.8839 66.8866 30.2332 64.1496 28.1429C61.403 26.0452 57.6327 26.3149 55.0732 29.2628C53.2239 31.3928 51.1024 33.7288 48.7091 36.2703C47.9299 33.6503 45.5108 31.7293 42.6318 31.6917ZM51.0391 48.1538C49.5771 49.541 48.2457 50.6003 47.0785 51.3118C45.908 52.0253 44.9177 52.3798 44.1338 52.3798H18.7903L13.5275 43.7595C14.8024 42.1903 16.496 40.3135 18.6069 38.1336C20.4819 36.1971 23.259 34.8862 25.618 34.8862H42.6097C44.3486 34.9096 45.7645 36.3366 45.7645 38.0892C45.7645 38.843 45.5041 39.5526 45.0334 40.122C44.7119 40.511 44.6052 40.9352 44.6578 41.3302C44.7099 41.7219 44.917 42.0744 45.205 42.3299C45.493 42.5854 45.8684 42.7494 46.2648 42.7559C46.6643 42.7625 47.0751 42.6087 47.4263 42.2462C51.3732 38.1726 54.7309 34.5417 57.5002 31.3522C58.2169 30.5266 59.0373 30.0901 59.8494 29.9914C60.6614 29.8927 61.4796 30.1298 62.1971 30.6778C62.8809 31.2 63.2823 31.8555 63.3753 32.5389C63.468 33.2206 63.2564 33.9494 62.6775 34.6268C62.5228 34.8078 61.8859 35.5971 61.044 36.6403C60.6352 37.1469 60.1781 37.7133 59.7044 38.299C58.253 40.0938 56.6439 42.0725 55.7793 43.0826C54.0739 45.0748 52.5107 46.7573 51.0391 48.1538Z" fill="#F36135" stroke="#F36135" stroke-width="0.3"/>
<path d="M9.79463 40.9973L18.8535 56.6144L13.2369 59.8421L4.17802 44.2249L9.79463 40.9973ZM9.15957 37.6737L1.6038 42.0157C0.604938 42.5897 0.26223 43.8614 0.839351 44.8563L11.0181 62.4042C11.5952 63.3992 12.873 63.7396 13.8719 63.1656L21.4277 58.8236C22.4265 58.2496 22.7693 56.9779 22.1921 55.983L12.0134 38.4351C11.4362 37.4402 10.1584 37.0997 9.15957 37.6737Z" fill="#F36135" stroke="#F36135" stroke-width="0.3"/>
<path d="M30.7797 33.2881C30.7797 34.171 31.4985 34.8855 32.3838 34.8855H42.5206C44.3123 34.8855 45.7635 36.331 45.7635 38.1126C45.7635 39.8942 44.3123 41.3397 42.5206 41.3397H32.8265C31.9413 41.3397 31.2224 42.0542 31.2224 42.937C31.2224 43.8198 31.9413 44.5343 32.8265 44.5343H42.5206C46.0828 44.5343 48.9717 41.6599 48.9717 38.1126C48.9717 34.5653 46.0828 31.6908 42.5206 31.6908H32.3838C31.4985 31.6908 30.7797 32.4053 30.7797 33.2881Z" fill="#F36135" stroke="#F36135" stroke-width="0.3"/>
<path d="M57.5341 7.29894L57.5456 7.19035L57.4453 7.14602L56.4784 6.71836C50.7999 4.20706 46.0092 3.93636 42.2278 6.10935C39.666 7.58152 37.7155 9.90391 36.6279 12.338C35.5418 14.7686 35.3067 17.3343 36.2154 19.2836C37.1353 21.2569 39.487 22.4216 42.2309 22.7216C44.9821 23.0224 48.1708 22.4611 50.8273 20.9346C54.6086 18.7616 56.7685 14.4967 57.4227 8.34631L57.5341 7.29894ZM39.126 17.9395C38.6139 16.8411 38.8221 15.132 39.6603 13.3998C40.4946 11.6756 41.937 9.96494 43.8324 8.8757C46.3618 7.42217 49.745 7.46727 54.0837 9.17978C53.4044 13.7759 51.752 16.7147 49.2226 18.1682C47.2762 19.2868 44.9595 19.7028 43.0165 19.5939C42.0452 19.5394 41.1738 19.3541 40.4927 19.0647C39.8084 18.7741 39.3344 18.3866 39.126 17.9395Z" fill="#F36135" stroke="#F36135" stroke-width="0.3"/>
<path d="M12.9651 18.9814L12.9124 18.8796L12.9969 18.802L13.81 18.0546C17.2372 14.9042 20.6599 13.5207 24.0268 14.1116C26.3098 14.5123 28.3827 15.6716 29.8527 17.1426C31.3198 18.6109 32.2037 20.4087 32.0661 22.0901C31.9237 23.8284 30.4938 25.2989 28.5491 26.2261C26.5982 27.1561 24.0916 27.5603 21.7182 27.1437C18.3512 26.5528 15.6103 24.0876 13.4724 19.9605L12.9651 18.9814ZM28.8684 21.831C28.8978 21.4718 28.7789 21.041 28.521 20.5802C28.2642 20.1213 27.8754 19.6436 27.3827 19.1949C26.397 18.2972 25.0091 17.5279 23.4695 17.2577C21.5018 16.9124 19.3348 17.6366 16.9302 19.5848C18.5204 22.234 20.3078 23.6523 22.2755 23.9976C23.9201 24.2863 25.6636 24.0402 27.0627 23.3915C27.6372 23.1252 28.0876 22.8188 28.3963 22.5314C28.5507 22.3876 28.6673 22.2507 28.7464 22.1282C28.8266 22.004 28.8624 21.9036 28.8684 21.831Z" fill="#F36135" stroke="#F36135" stroke-width="0.3"/>
<path d="M33.1636 23.5376L33.1635 23.5376L33.1635 23.5433C33.1625 28.6061 33.1625 28.614 33.1625 32.3061V32.3234C33.1625 33.2062 33.8813 33.9207 34.7666 33.9207C35.6519 33.9207 36.3707 33.2062 36.3707 32.3234V23.601C36.4266 22.1725 36.8263 21.3055 37.4683 20.8573C38.8021 19.9261 42.1918 17.9001 48.1803 14.4036C48.9444 13.9574 49.2011 12.9785 48.7524 12.2172C48.3039 11.4563 47.3213 11.2018 46.5575 11.6478C40.4567 15.2098 37.0718 17.2325 35.6265 18.2415C34.0461 19.3449 33.2537 21.1705 33.1636 23.5376Z" fill="#F36135" stroke="#F36135" stroke-width="0.3"/>
<path d="M36.3727 30.3936V30.3943C36.3727 31.2772 35.6538 31.9917 34.7685 31.9917C33.8833 31.9917 33.1644 31.2772 33.1644 30.3943V27.7166C33.0009 26.7086 32.5801 25.8877 31.8871 25.2062C31.487 24.8128 31.1416 24.538 30.8628 24.3756C30.7513 24.3107 30.5919 24.2615 30.3761 24.2353L30.3685 24.2343L30.3612 24.2327L21.8117 22.3033C20.9482 22.1084 20.4058 21.2532 20.6019 20.3922C20.798 19.5314 21.6575 18.9928 22.5208 19.1877L30.7675 21.0487C31.8953 21.1238 32.9871 21.7981 34.1413 22.9331C35.3642 24.1356 36.1083 25.6326 36.3567 27.3715L36.3581 27.3817L36.3582 27.392L36.3727 30.3936Z" fill="#F36135" stroke="#F36135" stroke-width="0.3"/>
</svg>
