<svg width="84" height="66" viewBox="0 0 84 66" fill="none" xmlns="http://www.w3.org/2000/svg">
<mask id="path-1-outside-1" maskUnits="userSpaceOnUse" x="0" y="0" width="84" height="66" fill="black">
<rect fill="white" width="84" height="66"/>
<path d="M81.5347 1C68.3281 1 53.9982 8.20439 47.2205 14.9832C43.6866 18.5171 41.4348 23.0281 40.8823 27.6863C40.3809 31.904 41.3516 35.7643 43.6066 38.7745C41.4711 41.7111 39.9244 46.012 38.9441 50.3288C37.4849 47.7315 35.5126 45.2866 33.1093 43.118C35.3856 37.9596 33.3525 30.9472 28.1045 27.1092C23.7097 23.8953 15.716 22.3337 3.66671 22.3337H1V24.4671C1 33.0347 8.41772 42.8268 13.5805 46.6029C16.1608 48.4899 19.5048 49.4051 22.4692 49.4051C25.5049 49.4051 28.4095 48.4291 30.5525 46.5666C34.944 50.6446 37.5222 55.7465 37.615 60.7333H26.6004C25.4228 60.7333 24.4671 61.689 24.4671 62.8666C24.4671 64.0443 25.4228 65 26.6004 65H53.2675C54.4452 65 55.4009 64.0443 55.4009 62.8666C55.4009 61.689 54.4452 60.7333 53.2675 60.7333H41.8988C41.9564 55.2345 43.7452 46.2882 46.7042 41.7708C49.2045 43.5202 52.2126 44.3927 55.3742 44.3927C60.4453 44.3927 65.6187 42.1868 69.8886 37.9169C77.2135 30.593 83.1347 14.6642 83.1347 3.13337V1H81.5347ZM29.5402 40.4769L19.5582 33.1776C18.6078 32.4832 17.2723 32.6891 16.5768 33.6405C15.8813 34.592 16.0883 35.9265 17.0397 36.6219L27.0207 43.9212C24.1716 45.7559 19.6488 45.5618 16.3645 43.1596C12.4082 40.2657 7.05023 32.9931 5.98675 26.6228C17.9827 26.8522 23.2617 28.8565 25.5828 30.5536C28.8693 32.9547 30.4245 37.2065 29.5402 40.4769ZM67.1376 34.9014C61.9429 40.0951 54.4196 41.5127 49.5907 38.5633L66.6384 21.5145C67.4715 20.6814 67.4715 19.331 66.6384 18.4979C65.8054 17.6648 64.4539 17.6648 63.6218 18.4979L46.5656 35.5542C45.3015 33.5168 44.7863 30.9749 45.117 28.1887C45.5511 24.5321 47.4168 20.8179 50.235 17.9998C56.1007 12.1341 68.2545 6.07955 79.3245 5.34141C78.5885 16.4189 72.5724 29.4666 67.1376 34.9014Z"/>
</mask>
<path d="M81.5347 1C68.3281 1 53.9982 8.20439 47.2205 14.9832C43.6866 18.5171 41.4348 23.0281 40.8823 27.6863C40.3809 31.904 41.3516 35.7643 43.6066 38.7745C41.4711 41.7111 39.9244 46.012 38.9441 50.3288C37.4849 47.7315 35.5126 45.2866 33.1093 43.118C35.3856 37.9596 33.3525 30.9472 28.1045 27.1092C23.7097 23.8953 15.716 22.3337 3.66671 22.3337H1V24.4671C1 33.0347 8.41772 42.8268 13.5805 46.6029C16.1608 48.4899 19.5048 49.4051 22.4692 49.4051C25.5049 49.4051 28.4095 48.4291 30.5525 46.5666C34.944 50.6446 37.5222 55.7465 37.615 60.7333H26.6004C25.4228 60.7333 24.4671 61.689 24.4671 62.8666C24.4671 64.0443 25.4228 65 26.6004 65H53.2675C54.4452 65 55.4009 64.0443 55.4009 62.8666C55.4009 61.689 54.4452 60.7333 53.2675 60.7333H41.8988C41.9564 55.2345 43.7452 46.2882 46.7042 41.7708C49.2045 43.5202 52.2126 44.3927 55.3742 44.3927C60.4453 44.3927 65.6187 42.1868 69.8886 37.9169C77.2135 30.593 83.1347 14.6642 83.1347 3.13337V1H81.5347ZM29.5402 40.4769L19.5582 33.1776C18.6078 32.4832 17.2723 32.6891 16.5768 33.6405C15.8813 34.592 16.0883 35.9265 17.0397 36.6219L27.0207 43.9212C24.1716 45.7559 19.6488 45.5618 16.3645 43.1596C12.4082 40.2657 7.05023 32.9931 5.98675 26.6228C17.9827 26.8522 23.2617 28.8565 25.5828 30.5536C28.8693 32.9547 30.4245 37.2065 29.5402 40.4769ZM67.1376 34.9014C61.9429 40.0951 54.4196 41.5127 49.5907 38.5633L66.6384 21.5145C67.4715 20.6814 67.4715 19.331 66.6384 18.4979C65.8054 17.6648 64.4539 17.6648 63.6218 18.4979L46.5656 35.5542C45.3015 33.5168 44.7863 30.9749 45.117 28.1887C45.5511 24.5321 47.4168 20.8179 50.235 17.9998C56.1007 12.1341 68.2545 6.07955 79.3245 5.34141C78.5885 16.4189 72.5724 29.4666 67.1376 34.9014Z" fill="#F27A28"/>
<path d="M81.5347 1C68.3281 1 53.9982 8.20439 47.2205 14.9832C43.6866 18.5171 41.4348 23.0281 40.8823 27.6863C40.3809 31.904 41.3516 35.7643 43.6066 38.7745C41.4711 41.7111 39.9244 46.012 38.9441 50.3288C37.4849 47.7315 35.5126 45.2866 33.1093 43.118C35.3856 37.9596 33.3525 30.9472 28.1045 27.1092C23.7097 23.8953 15.716 22.3337 3.66671 22.3337H1V24.4671C1 33.0347 8.41772 42.8268 13.5805 46.6029C16.1608 48.4899 19.5048 49.4051 22.4692 49.4051C25.5049 49.4051 28.4095 48.4291 30.5525 46.5666C34.944 50.6446 37.5222 55.7465 37.615 60.7333H26.6004C25.4228 60.7333 24.4671 61.689 24.4671 62.8666C24.4671 64.0443 25.4228 65 26.6004 65H53.2675C54.4452 65 55.4009 64.0443 55.4009 62.8666C55.4009 61.689 54.4452 60.7333 53.2675 60.7333H41.8988C41.9564 55.2345 43.7452 46.2882 46.7042 41.7708C49.2045 43.5202 52.2126 44.3927 55.3742 44.3927C60.4453 44.3927 65.6187 42.1868 69.8886 37.9169C77.2135 30.593 83.1347 14.6642 83.1347 3.13337V1H81.5347ZM29.5402 40.4769L19.5582 33.1776C18.6078 32.4832 17.2723 32.6891 16.5768 33.6405C15.8813 34.592 16.0883 35.9265 17.0397 36.6219L27.0207 43.9212C24.1716 45.7559 19.6488 45.5618 16.3645 43.1596C12.4082 40.2657 7.05023 32.9931 5.98675 26.6228C17.9827 26.8522 23.2617 28.8565 25.5828 30.5536C28.8693 32.9547 30.4245 37.2065 29.5402 40.4769ZM67.1376 34.9014C61.9429 40.0951 54.4196 41.5127 49.5907 38.5633L66.6384 21.5145C67.4715 20.6814 67.4715 19.331 66.6384 18.4979C65.8054 17.6648 64.4539 17.6648 63.6218 18.4979L46.5656 35.5542C45.3015 33.5168 44.7863 30.9749 45.117 28.1887C45.5511 24.5321 47.4168 20.8179 50.235 17.9998C56.1007 12.1341 68.2545 6.07955 79.3245 5.34141C78.5885 16.4189 72.5724 29.4666 67.1376 34.9014Z" stroke="#F27A28" stroke-width="0.6" mask="url(#path-1-outside-1)"/>
</svg>
