<svg width="67" height="64" viewBox="0 0 67 64" fill="none" xmlns="http://www.w3.org/2000/svg">
<path d="M42.6327 31.6907H42.6308L37.9904 31.6906H25.619C22.3269 31.6906 18.7404 33.3931 16.2983 35.9152C14.4665 37.807 12.93 39.4879 11.6876 40.9607C11.6373 41.0203 11.6323 41.0976 11.6322 41.1433C11.6322 41.1983 11.6406 41.2624 11.6541 41.3314C11.6812 41.4703 11.7335 41.6525 11.8058 41.8684C11.9508 42.3017 12.1827 42.8891 12.477 43.5759C13.0661 44.9504 13.91 46.7335 14.8235 48.5002C15.7367 50.2663 16.7215 52.0197 17.5925 53.3332C18.0276 53.9894 18.4374 54.5404 18.7981 54.9291C18.9783 55.1232 19.1501 55.281 19.3101 55.3912C19.4671 55.4994 19.6293 55.5735 19.787 55.5735H19.8188H19.8506H19.8824H19.9143H19.9463H19.9784H20.0105H20.0426H20.0749H20.1072H20.1395H20.1719H20.2044H20.2369H20.2695H20.3022H20.3349H20.3677H20.4006H20.4335H20.4664H20.4995H20.5326H20.5657H20.599H20.6322H20.6656H20.699H20.7325H20.766H20.7996H20.8332H20.8669H20.9007H20.9346H20.9685H21.0024H21.0365H21.0705H21.1047H21.1389H21.1732H21.2075H21.2419H21.2764H21.3109H21.3455H21.3801H21.4148H21.4496H21.4844H21.5193H21.5543H21.5893H21.6243H21.6595H21.6947H21.7299H21.7653H21.8007H21.8361H21.8716H21.9072H21.9428H21.9785H22.0143H22.0501H22.086H22.1219H22.1579H22.194H22.2301H22.2663H22.3026H22.3389H22.3753H22.4117H22.4482H22.4848H22.5214H22.5581H22.5948H22.6317H22.6685H22.7055H22.7425H22.7795H22.8166H22.8538H22.8911H22.9284H22.9657H23.0032H23.0407H23.0782H23.1158H23.1535H23.1913H23.2291H23.2669H23.3048H23.3428H23.3809H23.419H23.4572H23.4954H23.5337H23.5721H23.6105H23.649H23.6875H23.7261H23.7648H23.8035H23.8423H23.8812H23.9201H23.9591H23.9981H24.0372H24.0764H24.1156H24.1549H24.1942H24.2336H24.2731H24.3126H24.3522H24.3919H24.4316H24.4714H24.5113H24.5512H24.5911H24.6312H24.6713H24.7114H24.7516H24.7919H24.8322H24.8726H24.9131H24.9536H24.9942H25.0349H25.0756H25.1164H25.1572H25.1981H25.2391H25.2801H25.3212H25.3623H25.4035H25.4448H25.4861H25.5275H25.569H25.6105H25.6521H25.6937H25.7354H25.7772H25.819H25.8609H25.9028H25.9448H25.9869H26.0291H26.0713H26.1135H26.1558H26.1982H26.2407H26.2832H26.3257H26.3684H26.4111H26.4538H26.4966H26.5395H26.5825H26.6255H26.6685H26.7117H26.7549H26.7981H26.8414H26.8848H26.9282H26.9717H27.0153H27.0589H27.1026H27.1463H27.1901H27.234H27.2779H27.3219H27.366H27.4101H27.4543H27.4985H27.5428H27.5872H27.6316H27.6761H27.7207H27.7653H27.81H27.8547H27.8995H27.9444H27.9893H28.0343H28.0793H28.1244H28.1696H28.2148H28.2601H28.3055H28.3509H28.3964H28.4419H28.4875H28.5332H28.5789H28.6247H28.6706H28.7165H28.7624H28.8085H28.8546H28.9007H28.947H28.9932H29.0396H29.086H29.1325H29.179H29.2256H29.2723H29.319H29.3658H29.4126H29.4595H29.5065H29.5535H29.6006H29.6477H29.6949H29.7422H29.7896H29.837H29.8844H29.9319H29.9795H30.0272H30.0749H30.1227H30.1705H30.2184H30.2663H30.3144H30.3624H30.4106H30.4588H30.5071H30.5554H30.6038H30.6522H30.7007H30.7493H30.798H30.8467H30.8954H30.9442H30.9931H31.0421H31.0911H31.1402H31.1893H31.2385H31.2877H31.3371H31.3864H31.4359H31.4854H31.535H31.5846H31.6343H31.684H31.7338H31.7837H31.8337H31.8837H31.9337H31.9838H32.034H32.0843H32.1346H32.185H32.2354H32.2859H32.3364H32.3871H32.4377H32.4885H32.5393H32.5902H32.6411H32.6921H32.7431H32.7942H32.8454H32.8967H32.948H32.9993H33.0507H33.1022H33.1538H33.2054H33.2571H33.3088H33.3606H33.4124H33.4644H33.5163H33.5684H33.6205H33.6727H33.7249H33.7772H33.8295H33.882H33.9344H33.987H34.0396H34.0922H34.145H34.1977H34.2506H34.3035H34.3565H34.4095H34.4626H34.5158H34.569H34.6223H34.6756H34.729H34.7825H34.836H34.8896H34.9433H34.997H35.0507H35.1046H35.1585H35.2125H35.2665H35.3206H35.3747H35.4289H35.4832H35.5375H35.5919H35.6464H35.7009H35.7555H35.8101H35.8648H35.9196H35.9744H36.0293H36.0843H36.1393H36.1944H36.2495H36.3047H36.36H36.4153H36.4707H36.5261H36.5816H36.6372H36.6929H36.7486H36.8043H36.8601H36.916H36.972H37.028H37.084H37.1402H37.1964H37.2526H37.3089H37.3653H37.4217H37.4782H37.5348H37.5914H37.6481H37.7049H37.7617H37.8186H37.8755H37.9325H37.9895H38.0467H38.1038H38.1611H38.2184H38.2758H38.3332H38.3907H38.4482H38.5059H38.5635H38.6213H38.6791H38.7369H38.7949H38.8529H38.9109H38.969H39.0272H39.0854H39.1437H39.2021H39.2605H39.319H39.3775H39.4361H39.4948H39.5535H39.6123H39.6712H39.7301H39.7891H39.8481H39.9072H39.9664H40.0256H40.0849H40.1443H40.2037H40.2631H40.3227H40.3823H40.4419H40.5017H40.5614H40.6213H40.6812H40.7412H40.8012H40.8613H40.9214H40.9817H41.0419H41.1023H41.1627H41.2231H41.2837H41.3443H41.4049H41.4656H41.5264H41.5872H41.6481H41.7091H41.7701H41.8312H41.8923H41.9535H42.0148H42.0761H42.1375H42.199H42.2605H42.3221H42.3837H42.4454H42.5072H42.569H42.6309H42.6929H42.7549H42.817H42.8791H42.9413H43.0035H43.0659H43.1283H43.1907H43.2532H43.3158H43.3784H43.4411H43.5039H43.5667H43.6296H43.6925H43.7555H43.8186H43.8817H43.9449H44.0081H44.0714H44.1348C46.827 55.5735 49.8102 53.7326 53.2533 50.4655C54.8168 48.982 56.4522 47.2214 58.2219 45.154C59.1111 44.1152 60.734 42.12 62.1849 40.3259C62.7021 39.6864 63.197 39.0728 63.6294 38.5369C64.4121 37.5667 64.9895 36.8509 65.1217 36.6962C67.5261 33.8829 66.8876 30.2322 64.1506 28.1419C61.4039 26.0442 57.6337 26.3139 55.0742 29.2618C53.2249 31.3918 51.1034 33.7278 48.7101 36.2693C47.9308 33.6493 45.5118 31.7283 42.6327 31.6907ZM51.0401 48.1528C49.578 49.5401 48.2467 50.5993 47.0795 51.3108C45.909 52.0243 44.9186 52.3788 44.1348 52.3788H18.7913L13.5285 43.7585C14.8033 42.1894 16.497 40.3126 18.6079 38.1326C20.4829 36.1962 23.26 34.8853 25.619 34.8853H42.6107C44.3496 34.9086 45.7655 36.3356 45.7655 38.0883C45.7655 38.842 45.505 39.5516 45.0344 40.121C44.7128 40.51 44.6062 40.9342 44.6588 41.3292C44.7109 41.7209 44.9179 42.0735 45.206 42.3289C45.494 42.5844 45.8694 42.7484 46.2657 42.755C46.6653 42.7616 47.0761 42.6077 47.4273 42.2452C51.3741 38.1716 54.7319 34.5407 57.5012 31.3512C58.2179 30.5257 59.0382 30.0891 59.8504 29.9904C60.6624 29.8917 61.4806 30.1288 62.1981 30.6768C62.8819 31.199 63.2833 31.8545 63.3763 32.5379C63.469 33.2196 63.2574 33.9484 62.6785 34.6258C62.5238 34.8068 61.8868 35.5961 61.0449 36.6394C60.6362 37.1459 60.1791 37.7123 59.7054 38.298C58.254 40.0928 56.6449 42.0716 55.7803 43.0816C54.0749 45.0738 52.5117 46.7563 51.0401 48.1528Z" fill="#FFB729" stroke="#FFB729" stroke-width="0.3"/>
<path d="M9.79463 40.9963L18.8535 56.6135L13.2369 59.8411L4.17802 44.2239L9.79463 40.9963ZM9.15957 37.6728L1.6038 42.0147C0.604938 42.5887 0.26223 43.8604 0.839351 44.8553L11.0181 62.4032C11.5952 63.3982 12.873 63.7386 13.8719 63.1646L21.4277 58.8226C22.4265 58.2486 22.7693 56.977 22.1921 55.982L12.0134 38.4341C11.4362 37.4392 10.1584 37.0988 9.15957 37.6728Z" fill="#FFB729" stroke="#FFB729" stroke-width="0.3"/>
<path d="M30.7816 33.2891C30.7816 34.172 31.5005 34.8865 32.3858 34.8865H42.5226C44.3142 34.8865 45.7655 36.3319 45.7655 38.1135C45.7655 39.8952 44.3142 41.3406 42.5226 41.3406H32.8285C31.9432 41.3406 31.2244 42.0551 31.2244 42.938C31.2244 43.8208 31.9432 44.5353 32.8285 44.5353H42.5226C46.0848 44.5353 48.9737 41.6608 48.9737 38.1135C48.9737 34.5663 46.0848 31.6918 42.5226 31.6918H32.3858C31.5005 31.6918 30.7816 32.4063 30.7816 33.2891Z" fill="#FFB729" stroke="#FFB729" stroke-width="0.3"/>
<path d="M57.536 7.29894L57.5476 7.19035L57.4473 7.14602L56.4803 6.71836C50.8018 4.20706 46.0111 3.93636 42.2298 6.10935C39.6679 7.58152 37.7174 9.90391 36.6298 12.338C35.5437 14.7686 35.3086 17.3343 36.2174 19.2836C37.1373 21.2569 39.489 22.4216 42.2329 22.7216C44.9841 23.0224 48.1727 22.4611 50.8292 20.9346C54.6106 18.7616 56.7704 14.4967 57.4246 8.34631L57.536 7.29894ZM39.1279 17.9395C38.6159 16.8411 38.8241 15.132 39.6622 13.3998C40.4965 11.6756 41.9389 9.96494 43.8344 8.8757C46.3638 7.42217 49.747 7.46727 54.0856 9.17978C53.4063 13.7759 51.754 16.7147 49.2246 18.1682C47.2782 19.2868 44.9615 19.7028 43.0184 19.5939C42.0472 19.5394 41.1758 19.3541 40.4946 19.0647C39.8104 18.7741 39.3363 18.3866 39.1279 17.9395Z" fill="#FFB729" stroke="#FFB729" stroke-width="0.3"/>
<path d="M12.9651 18.9804L12.9124 18.8787L12.9969 18.801L13.81 18.0536C17.2372 14.9032 20.6599 13.5198 24.0268 14.1107C26.3098 14.5113 28.3827 15.6706 29.8527 17.1416C31.3198 18.6099 32.2037 20.4077 32.0661 22.0892C31.9237 23.8275 30.4938 25.298 28.5491 26.2251C26.5982 27.1551 24.0916 27.5593 21.7182 27.1427C18.3512 26.5518 15.6103 24.0866 13.4724 19.9596L12.9651 18.9804ZM28.8684 21.8301C28.8978 21.4709 28.7789 21.04 28.521 20.5793C28.2642 20.1203 27.8754 19.6426 27.3827 19.194C26.397 18.2962 25.0091 17.5269 23.4695 17.2567C21.5018 16.9114 19.3348 17.6357 16.9302 19.5838C18.5204 22.2331 20.3078 23.6513 22.2755 23.9967C23.9201 24.2853 25.6636 24.0392 27.0627 23.3906C27.6372 23.1242 28.0876 22.8178 28.3963 22.5304C28.5507 22.3866 28.6673 22.2497 28.7464 22.1272C28.8266 22.003 28.8624 21.9026 28.8684 21.8301Z" fill="#FFB729" stroke="#FFB729" stroke-width="0.3"/>
<path d="M33.1646 23.5376L33.1645 23.5376L33.1645 23.5433C33.1635 28.6061 33.1635 28.614 33.1635 32.3061V32.3234C33.1635 33.2062 33.8823 33.9207 34.7676 33.9207C35.6528 33.9207 36.3717 33.2062 36.3717 32.3234V23.601C36.4275 22.1725 36.8273 21.3055 37.4693 20.8573C38.8031 19.9261 42.1928 17.9001 48.1813 14.4036C48.9454 13.9574 49.202 12.9785 48.7533 12.2172C48.3049 11.4563 47.3222 11.2018 46.5585 11.6478C40.4577 15.2098 37.0728 17.2325 35.6275 18.2415C34.0471 19.3449 33.2547 21.1705 33.1646 23.5376Z" fill="#FFB729" stroke="#FFB729" stroke-width="0.3"/>
<path d="M36.3717 30.3926V30.3934C36.3717 31.2762 35.6528 31.9907 34.7676 31.9907C33.8823 31.9907 33.1635 31.2762 33.1635 30.3934V27.7156C32.9999 26.7076 32.5791 25.8867 31.8861 25.2053C31.486 24.8118 31.1406 24.537 30.8618 24.3746C30.7503 24.3097 30.5909 24.2605 30.3751 24.2343L30.3676 24.2334L30.3602 24.2317L21.8107 22.3023C20.9472 22.1075 20.4048 21.2522 20.6009 20.3912C20.797 19.5304 21.6565 18.9919 22.5198 19.1867L30.7666 21.0477C31.8943 21.1229 32.9861 21.7971 34.1404 22.9322C35.3632 24.1346 36.1073 25.6316 36.3557 27.3705L36.3571 27.3807L36.3572 27.391L36.3717 30.3926Z" fill="#FFB729" stroke="#FFB729" stroke-width="0.3"/>
</svg>
