<svg width="66" height="66" viewBox="0 0 66 66" fill="none" xmlns="http://www.w3.org/2000/svg">
<mask id="path-1-outside-1" maskUnits="userSpaceOnUse" x="17.7891" y="12.4697" width="31" height="44" fill="black">
<rect fill="white" x="17.7891" y="12.4697" width="31" height="44"/>
<path d="M33.0008 55.2307C33.443 55.2307 33.8008 54.8725 33.8008 54.4307V41.5939C41.2624 41.1783 47.2094 35.0489 47.2094 27.5521C47.2094 19.7869 40.8344 13.4697 32.9992 13.4697C25.1641 13.4697 18.7891 19.7869 18.7891 27.5521C18.7891 35.0499 24.7377 41.18 32.2008 41.5941V54.4307C32.2008 54.8725 32.5586 55.2307 33.0008 55.2307ZM20.3891 27.5521C20.3891 20.6693 26.0461 15.0697 32.9992 15.0697C39.9523 15.0697 45.6094 20.6693 45.6094 27.5521C45.6094 34.1671 40.3801 39.5815 33.8008 39.994V35.2455L38.268 30.7846C38.5805 30.4725 38.5805 29.9658 38.2687 29.6533C37.9562 29.34 37.4492 29.3408 37.1367 29.6525L33.8008 32.9841V27.3842C33.8008 26.9424 33.443 26.5842 33.0008 26.5842C32.5586 26.5842 32.2008 26.9424 32.2008 27.3842V32.9842L28.8641 29.6525C28.5516 29.3408 28.0445 29.34 27.732 29.6533C27.4203 29.9658 27.4203 30.4725 27.7328 30.7846L32.2008 35.2455V39.9941C25.6201 39.5831 20.3891 34.1682 20.3891 27.5521Z"/>
</mask>
<path d="M33.0008 55.2307C33.443 55.2307 33.8008 54.8725 33.8008 54.4307V41.5939C41.2624 41.1783 47.2094 35.0489 47.2094 27.5521C47.2094 19.7869 40.8344 13.4697 32.9992 13.4697C25.1641 13.4697 18.7891 19.7869 18.7891 27.5521C18.7891 35.0499 24.7377 41.18 32.2008 41.5941V54.4307C32.2008 54.8725 32.5586 55.2307 33.0008 55.2307ZM20.3891 27.5521C20.3891 20.6693 26.0461 15.0697 32.9992 15.0697C39.9523 15.0697 45.6094 20.6693 45.6094 27.5521C45.6094 34.1671 40.3801 39.5815 33.8008 39.994V35.2455L38.268 30.7846C38.5805 30.4725 38.5805 29.9658 38.2687 29.6533C37.9562 29.34 37.4492 29.3408 37.1367 29.6525L33.8008 32.9841V27.3842C33.8008 26.9424 33.443 26.5842 33.0008 26.5842C32.5586 26.5842 32.2008 26.9424 32.2008 27.3842V32.9842L28.8641 29.6525C28.5516 29.3408 28.0445 29.34 27.732 29.6533C27.4203 29.9658 27.4203 30.4725 27.7328 30.7846L32.2008 35.2455V39.9941C25.6201 39.5831 20.3891 34.1682 20.3891 27.5521Z" fill="#F27A28"/>
<path d="M33.0008 55.2307C33.443 55.2307 33.8008 54.8725 33.8008 54.4307V41.5939C41.2624 41.1783 47.2094 35.0489 47.2094 27.5521C47.2094 19.7869 40.8344 13.4697 32.9992 13.4697C25.1641 13.4697 18.7891 19.7869 18.7891 27.5521C18.7891 35.0499 24.7377 41.18 32.2008 41.5941V54.4307C32.2008 54.8725 32.5586 55.2307 33.0008 55.2307ZM20.3891 27.5521C20.3891 20.6693 26.0461 15.0697 32.9992 15.0697C39.9523 15.0697 45.6094 20.6693 45.6094 27.5521C45.6094 34.1671 40.3801 39.5815 33.8008 39.994V35.2455L38.268 30.7846C38.5805 30.4725 38.5805 29.9658 38.2687 29.6533C37.9562 29.34 37.4492 29.3408 37.1367 29.6525L33.8008 32.9841V27.3842C33.8008 26.9424 33.443 26.5842 33.0008 26.5842C32.5586 26.5842 32.2008 26.9424 32.2008 27.3842V32.9842L28.8641 29.6525C28.5516 29.3408 28.0445 29.34 27.732 29.6533C27.4203 29.9658 27.4203 30.4725 27.7328 30.7846L32.2008 35.2455V39.9941C25.6201 39.5831 20.3891 34.1682 20.3891 27.5521Z" stroke="#F27A28" stroke-width="1.6" mask="url(#path-1-outside-1)"/>
<mask id="path-2-outside-2" maskUnits="userSpaceOnUse" x="0" y="0" width="56" height="53" fill="black">
<rect fill="white" width="56" height="53"/>
<path d="M2.6 33C2.6 16.2375 16.2375 2.6 33 2.6C39.7756 2.6 46.3542 4.86719 51.674 9.01045L47.2039 9.01992C46.7617 9.0207 46.4047 9.37969 46.4055 9.82148C46.4062 10.2629 46.7641 10.6199 47.2055 10.6199C47.2062 10.6199 47.2062 10.6199 47.207 10.6199L53.8875 10.6059C54.3281 10.6051 54.6852 10.248 54.6859 9.80742L54.7 3.10156C54.7008 2.65977 54.3437 2.30078 53.9016 2.3C53.9008 2.3 53.9008 2.3 53.9 2.3C53.4586 2.3 53.1008 2.65703 53.1 3.09844L53.0894 8.0999C47.4145 3.51934 40.3185 1 33 1C15.3555 1 1 15.3551 1 33C1 39.4129 2.88984 45.6 6.46484 50.8922C6.61953 51.1207 6.87187 51.2441 7.12891 51.2441C7.28281 51.2441 7.43906 51.1996 7.57578 51.107C7.94219 50.8598 8.03828 50.3625 7.79141 49.9961C4.39531 44.9695 2.6 39.0926 2.6 33Z"/>
</mask>
<path d="M2.6 33C2.6 16.2375 16.2375 2.6 33 2.6C39.7756 2.6 46.3542 4.86719 51.674 9.01045L47.2039 9.01992C46.7617 9.0207 46.4047 9.37969 46.4055 9.82148C46.4062 10.2629 46.7641 10.6199 47.2055 10.6199C47.2062 10.6199 47.2062 10.6199 47.207 10.6199L53.8875 10.6059C54.3281 10.6051 54.6852 10.248 54.6859 9.80742L54.7 3.10156C54.7008 2.65977 54.3437 2.30078 53.9016 2.3C53.9008 2.3 53.9008 2.3 53.9 2.3C53.4586 2.3 53.1008 2.65703 53.1 3.09844L53.0894 8.0999C47.4145 3.51934 40.3185 1 33 1C15.3555 1 1 15.3551 1 33C1 39.4129 2.88984 45.6 6.46484 50.8922C6.61953 51.1207 6.87187 51.2441 7.12891 51.2441C7.28281 51.2441 7.43906 51.1996 7.57578 51.107C7.94219 50.8598 8.03828 50.3625 7.79141 49.9961C4.39531 44.9695 2.6 39.0926 2.6 33Z" fill="#F27A28"/>
<path d="M2.6 33C2.6 16.2375 16.2375 2.6 33 2.6C39.7756 2.6 46.3542 4.86719 51.674 9.01045L47.2039 9.01992C46.7617 9.0207 46.4047 9.37969 46.4055 9.82148C46.4062 10.2629 46.7641 10.6199 47.2055 10.6199C47.2062 10.6199 47.2062 10.6199 47.207 10.6199L53.8875 10.6059C54.3281 10.6051 54.6852 10.248 54.6859 9.80742L54.7 3.10156C54.7008 2.65977 54.3437 2.30078 53.9016 2.3C53.9008 2.3 53.9008 2.3 53.9 2.3C53.4586 2.3 53.1008 2.65703 53.1 3.09844L53.0894 8.0999C47.4145 3.51934 40.3185 1 33 1C15.3555 1 1 15.3551 1 33C1 39.4129 2.88984 45.6 6.46484 50.8922C6.61953 51.1207 6.87187 51.2441 7.12891 51.2441C7.28281 51.2441 7.43906 51.1996 7.57578 51.107C7.94219 50.8598 8.03828 50.3625 7.79141 49.9961C4.39531 44.9695 2.6 39.0926 2.6 33Z" stroke="#F27A28" stroke-width="1.6" mask="url(#path-2-outside-2)"/>
<mask id="path-3-outside-3" maskUnits="userSpaceOnUse" x="9.90625" y="13.7568" width="56" height="53" fill="black">
<rect fill="white" x="9.90625" y="13.7568" width="56" height="53"/>
<path d="M58.4242 14.8938C58.0578 15.141 57.9617 15.6383 58.2086 16.0047C61.6047 21.0313 63.4 26.9082 63.4 33.0008C63.4 49.7633 49.7625 63.4008 33 63.4008C25.9558 63.4008 19.1891 60.9744 13.7706 56.5427L18.4023 56.5328C18.8445 56.532 19.2016 56.173 19.2008 55.7313C19.2 55.2898 18.8422 54.9328 18.4008 54.9328C18.4 54.9328 18.4 54.9328 18.3992 54.9328L11.7188 54.9469C11.2781 54.9477 10.9211 55.3047 10.9203 55.7453L10.9063 62.4512C10.9055 62.893 11.2625 63.252 11.7047 63.2527C11.7055 63.2527 11.7055 63.2527 11.7063 63.2527C12.1477 63.2527 12.5055 62.8957 12.5063 62.4543L12.5166 57.5839C18.2609 62.3752 25.4808 65.0008 33 65.0008C50.6445 65.0008 65 50.6457 65 33.0008C65 26.5879 63.1102 20.4008 59.5352 15.1086C59.2875 14.743 58.7891 14.6469 58.4242 14.8938Z"/>
</mask>
<path d="M58.4242 14.8938C58.0578 15.141 57.9617 15.6383 58.2086 16.0047C61.6047 21.0313 63.4 26.9082 63.4 33.0008C63.4 49.7633 49.7625 63.4008 33 63.4008C25.9558 63.4008 19.1891 60.9744 13.7706 56.5427L18.4023 56.5328C18.8445 56.532 19.2016 56.173 19.2008 55.7313C19.2 55.2898 18.8422 54.9328 18.4008 54.9328C18.4 54.9328 18.4 54.9328 18.3992 54.9328L11.7188 54.9469C11.2781 54.9477 10.9211 55.3047 10.9203 55.7453L10.9063 62.4512C10.9055 62.893 11.2625 63.252 11.7047 63.2527C11.7055 63.2527 11.7055 63.2527 11.7063 63.2527C12.1477 63.2527 12.5055 62.8957 12.5063 62.4543L12.5166 57.5839C18.2609 62.3752 25.4808 65.0008 33 65.0008C50.6445 65.0008 65 50.6457 65 33.0008C65 26.5879 63.1102 20.4008 59.5352 15.1086C59.2875 14.743 58.7891 14.6469 58.4242 14.8938Z" fill="#F27A28"/>
<path d="M58.4242 14.8938C58.0578 15.141 57.9617 15.6383 58.2086 16.0047C61.6047 21.0313 63.4 26.9082 63.4 33.0008C63.4 49.7633 49.7625 63.4008 33 63.4008C25.9558 63.4008 19.1891 60.9744 13.7706 56.5427L18.4023 56.5328C18.8445 56.532 19.2016 56.173 19.2008 55.7313C19.2 55.2898 18.8422 54.9328 18.4008 54.9328C18.4 54.9328 18.4 54.9328 18.3992 54.9328L11.7188 54.9469C11.2781 54.9477 10.9211 55.3047 10.9203 55.7453L10.9063 62.4512C10.9055 62.893 11.2625 63.252 11.7047 63.2527C11.7055 63.2527 11.7055 63.2527 11.7063 63.2527C12.1477 63.2527 12.5055 62.8957 12.5063 62.4543L12.5166 57.5839C18.2609 62.3752 25.4808 65.0008 33 65.0008C50.6445 65.0008 65 50.6457 65 33.0008C65 26.5879 63.1102 20.4008 59.5352 15.1086C59.2875 14.743 58.7891 14.6469 58.4242 14.8938Z" stroke="#F27A28" stroke-width="1.6" mask="url(#path-3-outside-3)"/>
</svg>
