<svg width="66" height="66" viewBox="0 0 66 66" fill="none" xmlns="http://www.w3.org/2000/svg">
<rect width="66" height="66" fill="#E5E5E5"/>
<g clip-path="url(#clip0)">
<rect width="1440" height="5825" transform="translate(-79 -3020)" fill="white"/>
<rect width="1440" height="878" transform="translate(-79 -99)" fill="white"/>
<rect opacity="0.3" x="-79" y="-99" width="1440" height="372" fill="#ECF3F7"/>
<mask id="path-2-outside-1" maskUnits="userSpaceOnUse" x="17.7891" y="12.4688" width="31" height="44" fill="black">
<rect fill="white" x="17.7891" y="12.4688" width="31" height="44"/>
<path d="M33.0008 55.2297C33.443 55.2297 33.8008 54.8715 33.8008 54.4297V41.593C41.2624 41.1773 47.2094 35.0479 47.2094 27.5512C47.2094 19.7859 40.8344 13.4688 32.9992 13.4688C25.1641 13.4688 18.7891 19.7859 18.7891 27.5512C18.7891 35.0489 24.7377 41.1791 32.2008 41.5931V54.4297C32.2008 54.8715 32.5586 55.2297 33.0008 55.2297ZM20.3891 27.5512C20.3891 20.6684 26.0461 15.0688 32.9992 15.0688C39.9523 15.0688 45.6094 20.6684 45.6094 27.5512C45.6094 34.1662 40.3801 39.5805 33.8008 39.993V35.2445L38.268 30.7836C38.5805 30.4715 38.5805 29.9648 38.2687 29.6523C37.9562 29.3391 37.4492 29.3398 37.1367 29.6516L33.8008 32.9831V27.3832C33.8008 26.9414 33.443 26.5832 33.0008 26.5832C32.5586 26.5832 32.2008 26.9414 32.2008 27.3832V32.9833L28.8641 29.6516C28.5516 29.3398 28.0445 29.3391 27.732 29.6523C27.4203 29.9648 27.4203 30.4715 27.7328 30.7836L32.2008 35.2445V39.9932C25.6201 39.5821 20.3891 34.1672 20.3891 27.5512Z"/>
</mask>
<path d="M33.0008 55.2297C33.443 55.2297 33.8008 54.8715 33.8008 54.4297V41.593C41.2624 41.1773 47.2094 35.0479 47.2094 27.5512C47.2094 19.7859 40.8344 13.4688 32.9992 13.4688C25.1641 13.4688 18.7891 19.7859 18.7891 27.5512C18.7891 35.0489 24.7377 41.1791 32.2008 41.5931V54.4297C32.2008 54.8715 32.5586 55.2297 33.0008 55.2297ZM20.3891 27.5512C20.3891 20.6684 26.0461 15.0688 32.9992 15.0688C39.9523 15.0688 45.6094 20.6684 45.6094 27.5512C45.6094 34.1662 40.3801 39.5805 33.8008 39.993V35.2445L38.268 30.7836C38.5805 30.4715 38.5805 29.9648 38.2687 29.6523C37.9562 29.3391 37.4492 29.3398 37.1367 29.6516L33.8008 32.9831V27.3832C33.8008 26.9414 33.443 26.5832 33.0008 26.5832C32.5586 26.5832 32.2008 26.9414 32.2008 27.3832V32.9833L28.8641 29.6516C28.5516 29.3398 28.0445 29.3391 27.732 29.6523C27.4203 29.9648 27.4203 30.4715 27.7328 30.7836L32.2008 35.2445V39.9932C25.6201 39.5821 20.3891 34.1672 20.3891 27.5512Z" fill="#FFB729"/>
<path d="M33.0008 55.2297C33.443 55.2297 33.8008 54.8715 33.8008 54.4297V41.593C41.2624 41.1773 47.2094 35.0479 47.2094 27.5512C47.2094 19.7859 40.8344 13.4688 32.9992 13.4688C25.1641 13.4688 18.7891 19.7859 18.7891 27.5512C18.7891 35.0489 24.7377 41.1791 32.2008 41.5931V54.4297C32.2008 54.8715 32.5586 55.2297 33.0008 55.2297ZM20.3891 27.5512C20.3891 20.6684 26.0461 15.0688 32.9992 15.0688C39.9523 15.0688 45.6094 20.6684 45.6094 27.5512C45.6094 34.1662 40.3801 39.5805 33.8008 39.993V35.2445L38.268 30.7836C38.5805 30.4715 38.5805 29.9648 38.2687 29.6523C37.9562 29.3391 37.4492 29.3398 37.1367 29.6516L33.8008 32.9831V27.3832C33.8008 26.9414 33.443 26.5832 33.0008 26.5832C32.5586 26.5832 32.2008 26.9414 32.2008 27.3832V32.9833L28.8641 29.6516C28.5516 29.3398 28.0445 29.3391 27.732 29.6523C27.4203 29.9648 27.4203 30.4715 27.7328 30.7836L32.2008 35.2445V39.9932C25.6201 39.5821 20.3891 34.1672 20.3891 27.5512Z" stroke="#FFB729" stroke-width="1.6" mask="url(#path-2-outside-1)"/>
<mask id="path-3-outside-2" maskUnits="userSpaceOnUse" x="0" y="0" width="56" height="53" fill="black">
<rect fill="white" width="56" height="53"/>
<path d="M2.6 33C2.6 16.2375 16.2375 2.6 33 2.6C39.7756 2.6 46.3542 4.86719 51.674 9.01045L47.2039 9.01992C46.7617 9.0207 46.4047 9.37969 46.4055 9.82148C46.4062 10.2629 46.7641 10.6199 47.2055 10.6199C47.2062 10.6199 47.2062 10.6199 47.207 10.6199L53.8875 10.6059C54.3281 10.6051 54.6852 10.248 54.6859 9.80742L54.7 3.10156C54.7008 2.65977 54.3437 2.30078 53.9016 2.3C53.9008 2.3 53.9008 2.3 53.9 2.3C53.4586 2.3 53.1008 2.65703 53.1 3.09844L53.0894 8.0999C47.4145 3.51934 40.3185 1 33 1C15.3555 1 1 15.3551 1 33C1 39.4129 2.88984 45.6 6.46484 50.8922C6.61953 51.1207 6.87187 51.2441 7.12891 51.2441C7.28281 51.2441 7.43906 51.1996 7.57578 51.107C7.94219 50.8598 8.03828 50.3625 7.79141 49.9961C4.39531 44.9695 2.6 39.0926 2.6 33Z"/>
</mask>
<path d="M2.6 33C2.6 16.2375 16.2375 2.6 33 2.6C39.7756 2.6 46.3542 4.86719 51.674 9.01045L47.2039 9.01992C46.7617 9.0207 46.4047 9.37969 46.4055 9.82148C46.4062 10.2629 46.7641 10.6199 47.2055 10.6199C47.2062 10.6199 47.2062 10.6199 47.207 10.6199L53.8875 10.6059C54.3281 10.6051 54.6852 10.248 54.6859 9.80742L54.7 3.10156C54.7008 2.65977 54.3437 2.30078 53.9016 2.3C53.9008 2.3 53.9008 2.3 53.9 2.3C53.4586 2.3 53.1008 2.65703 53.1 3.09844L53.0894 8.0999C47.4145 3.51934 40.3185 1 33 1C15.3555 1 1 15.3551 1 33C1 39.4129 2.88984 45.6 6.46484 50.8922C6.61953 51.1207 6.87187 51.2441 7.12891 51.2441C7.28281 51.2441 7.43906 51.1996 7.57578 51.107C7.94219 50.8598 8.03828 50.3625 7.79141 49.9961C4.39531 44.9695 2.6 39.0926 2.6 33Z" fill="#FFB729"/>
<path d="M2.6 33C2.6 16.2375 16.2375 2.6 33 2.6C39.7756 2.6 46.3542 4.86719 51.674 9.01045L47.2039 9.01992C46.7617 9.0207 46.4047 9.37969 46.4055 9.82148C46.4062 10.2629 46.7641 10.6199 47.2055 10.6199C47.2062 10.6199 47.2062 10.6199 47.207 10.6199L53.8875 10.6059C54.3281 10.6051 54.6852 10.248 54.6859 9.80742L54.7 3.10156C54.7008 2.65977 54.3437 2.30078 53.9016 2.3C53.9008 2.3 53.9008 2.3 53.9 2.3C53.4586 2.3 53.1008 2.65703 53.1 3.09844L53.0894 8.0999C47.4145 3.51934 40.3185 1 33 1C15.3555 1 1 15.3551 1 33C1 39.4129 2.88984 45.6 6.46484 50.8922C6.61953 51.1207 6.87187 51.2441 7.12891 51.2441C7.28281 51.2441 7.43906 51.1996 7.57578 51.107C7.94219 50.8598 8.03828 50.3625 7.79141 49.9961C4.39531 44.9695 2.6 39.0926 2.6 33Z" stroke="#FFB729" stroke-width="1.6" mask="url(#path-3-outside-2)"/>
<mask id="path-4-outside-3" maskUnits="userSpaceOnUse" x="9.90527" y="13.7559" width="56" height="53" fill="black">
<rect fill="white" x="9.90527" y="13.7559" width="56" height="53"/>
<path d="M58.4232 14.8928C58.0568 15.14 57.9607 15.6373 58.2076 16.0037C61.6037 21.0303 63.399 26.9072 63.399 32.9998C63.399 49.7623 49.7615 63.3998 32.999 63.3998C25.9548 63.3998 19.1881 60.9734 13.7696 56.5417L18.4014 56.5318C18.8436 56.5311 19.2006 56.1721 19.1998 55.7303C19.199 55.2889 18.8412 54.9318 18.3998 54.9318C18.399 54.9318 18.399 54.9318 18.3982 54.9318L11.7178 54.9459C11.2771 54.9467 10.9201 55.3037 10.9193 55.7443L10.9053 62.4502C10.9045 62.892 11.2615 63.251 11.7037 63.2518C11.7045 63.2518 11.7045 63.2518 11.7053 63.2518C12.1467 63.2518 12.5045 62.8947 12.5053 62.4533L12.5156 57.583C18.2599 62.3742 25.4798 64.9998 32.999 64.9998C50.6436 64.9998 64.999 50.6447 64.999 32.9998C64.999 26.5869 63.1092 20.3998 59.5342 15.1076C59.2865 14.742 58.7881 14.6459 58.4232 14.8928Z"/>
</mask>
<path d="M58.4232 14.8928C58.0568 15.14 57.9607 15.6373 58.2076 16.0037C61.6037 21.0303 63.399 26.9072 63.399 32.9998C63.399 49.7623 49.7615 63.3998 32.999 63.3998C25.9548 63.3998 19.1881 60.9734 13.7696 56.5417L18.4014 56.5318C18.8436 56.5311 19.2006 56.1721 19.1998 55.7303C19.199 55.2889 18.8412 54.9318 18.3998 54.9318C18.399 54.9318 18.399 54.9318 18.3982 54.9318L11.7178 54.9459C11.2771 54.9467 10.9201 55.3037 10.9193 55.7443L10.9053 62.4502C10.9045 62.892 11.2615 63.251 11.7037 63.2518C11.7045 63.2518 11.7045 63.2518 11.7053 63.2518C12.1467 63.2518 12.5045 62.8947 12.5053 62.4533L12.5156 57.583C18.2599 62.3742 25.4798 64.9998 32.999 64.9998C50.6436 64.9998 64.999 50.6447 64.999 32.9998C64.999 26.5869 63.1092 20.3998 59.5342 15.1076C59.2865 14.742 58.7881 14.6459 58.4232 14.8928Z" fill="#FFB729"/>
<path d="M58.4232 14.8928C58.0568 15.14 57.9607 15.6373 58.2076 16.0037C61.6037 21.0303 63.399 26.9072 63.399 32.9998C63.399 49.7623 49.7615 63.3998 32.999 63.3998C25.9548 63.3998 19.1881 60.9734 13.7696 56.5417L18.4014 56.5318C18.8436 56.5311 19.2006 56.1721 19.1998 55.7303C19.199 55.2889 18.8412 54.9318 18.3998 54.9318C18.399 54.9318 18.399 54.9318 18.3982 54.9318L11.7178 54.9459C11.2771 54.9467 10.9201 55.3037 10.9193 55.7443L10.9053 62.4502C10.9045 62.892 11.2615 63.251 11.7037 63.2518C11.7045 63.2518 11.7045 63.2518 11.7053 63.2518C12.1467 63.2518 12.5045 62.8947 12.5053 62.4533L12.5156 57.583C18.2599 62.3742 25.4798 64.9998 32.999 64.9998C50.6436 64.9998 64.999 50.6447 64.999 32.9998C64.999 26.5869 63.1092 20.3998 59.5342 15.1076C59.2865 14.742 58.7881 14.6459 58.4232 14.8928Z" stroke="#FFB729" stroke-width="1.6" mask="url(#path-4-outside-3)"/>
</g>
<defs>
<clipPath id="clip0">
<rect width="1440" height="5825" fill="white" transform="translate(-79 -3020)"/>
</clipPath>
</defs>
</svg>
