<svg width="77" height="72" viewBox="0 0 77 72" fill="none" xmlns="http://www.w3.org/2000/svg">
<path d="M75.0999 28.4008L26.0999 28.3008C25.2999 28.3008 24.6999 28.8008 24.4999 29.6008L15.9999 62.2008C15.8999 62.7008 15.9999 63.2008 16.2999 63.7008C16.5999 64.1008 17.0999 64.4008 17.5999 64.4008H31.9999C32.0999 64.4008 32.0999 64.4008 32.1999 64.4008C32.2999 64.4008 32.2999 64.4008 32.3999 64.4008H35.1999V68.5008H24.6999C23.6999 68.5008 22.9999 69.3008 22.9999 70.2008C22.9999 71.1008 23.7999 71.9008 24.6999 71.9008L60.8999 72.0008C61.7999 72.0008 62.5999 71.2008 62.5999 70.3008C62.5999 69.4008 61.7999 68.6008 60.8999 68.6008H50.0999V64.5008H66.5999C67.3999 64.5008 67.9999 64.0008 68.1999 63.2008L76.5999 30.6008C76.6999 30.1008 76.5999 29.6008 76.2999 29.1008C76.0999 28.6008 75.5999 28.4008 75.0999 28.4008ZM41.9999 31.7008H55.9999L53.9999 39.2008H39.9999L41.9999 31.7008ZM27.3999 31.6008H38.5999L36.5999 39.1008H25.3999L27.3999 31.6008ZM30.9999 60.9008H19.7999L21.5999 53.9008H32.7999L30.9999 60.9008ZM22.4999 50.5008L24.5999 42.5008H35.7999L33.6999 50.5008H22.4999ZM38.5999 68.4008V64.3008H42.3999H46.6999V68.4008H38.5999ZM48.3999 61.0008H34.3999L36.1999 54.0008H50.1999L48.3999 61.0008ZM37.0999 50.6008L39.1999 42.6008H53.1999L51.0999 50.6008H37.0999ZM65.2999 61.0008H51.8999L53.6999 54.0008H67.0999L65.2999 61.0008ZM67.9999 50.7008H54.5999L56.6999 42.7008H70.0999L67.9999 50.7008ZM70.8999 39.3008H57.4999L59.4999 31.8008H72.8999L70.8999 39.3008Z" fill="#FFB729"/>
<path d="M15.3 23.1C19.6 23.1 23.1 19.6 23.1 15.3C23.1 11 19.6 7.5 15.3 7.5C11 7.5 7.5 11 7.5 15.3C7.5 19.6 11 23.1 15.3 23.1ZM15.3 10.9C17.7 10.9 19.7 12.9 19.7 15.3C19.7 17.7 17.7 19.7 15.3 19.7C12.9 19.7 10.9 17.7 10.9 15.3C10.9 12.8 12.9 10.9 15.3 10.9Z" fill="#FFB729"/>
<path d="M17.0001 5.2V1.7C17.0001 0.8 16.2001 0 15.3001 0C14.4001 0 13.6001 0.8 13.6001 1.7V5.2C13.6001 6.1 14.4001 6.9 15.3001 6.9C16.2001 6.9 17.0001 6.1 17.0001 5.2Z" fill="#FFB729"/>
<path d="M17.0001 28.8992V25.3992C17.0001 24.4992 16.2001 23.6992 15.3001 23.6992C14.4001 23.6992 13.6001 24.4992 13.6001 25.3992V28.8992C13.6001 29.7992 14.4001 30.5992 15.3001 30.5992C16.2001 30.5992 17.0001 29.7992 17.0001 28.8992Z" fill="#FFB729"/>
<path d="M30.6998 15.2996C30.6998 14.3996 29.8998 13.5996 28.9998 13.5996H25.4998C24.5998 13.5996 23.7998 14.3996 23.7998 15.2996C23.7998 16.1996 24.5998 16.9996 25.4998 16.9996H28.9998C29.8998 16.9996 30.6998 16.1996 30.6998 15.2996Z" fill="#FFB729"/>
<path d="M6.9 15.2996C6.9 14.3996 6.1 13.5996 5.2 13.5996H1.7C0.8 13.5996 0 14.3996 0 15.2996C0 16.1996 0.8 16.9996 1.7 16.9996H5.2C6.2 16.9996 6.9 16.1996 6.9 15.2996Z" fill="#FFB729"/>
<path d="M22.4999 9.8C22.8999 9.8 23.3999 9.6 23.6999 9.3L26.1999 6.8C26.8999 6.1 26.8999 5.1 26.1999 4.4C25.4999 3.7 24.4999 3.7 23.7999 4.4L21.2999 7C20.5999 7.7 20.5999 8.7 21.2999 9.4C21.5999 9.7 21.9999 9.8 22.4999 9.8Z" fill="#FFB729"/>
<path d="M7.0001 21.2L4.5001 23.7C3.8001 24.4 3.8001 25.4 4.5001 26.1C4.8001 26.4 5.3001 26.6 5.7001 26.6C6.1001 26.6 6.6001 26.4 6.9001 26.1L9.4001 23.6C10.1001 22.9 10.1001 21.9 9.4001 21.2C8.7001 20.6 7.7001 20.6 7.0001 21.2Z" fill="#FFB729"/>
<path d="M23.7999 26.1008C24.0999 26.4008 24.5999 26.6008 24.9999 26.6008C25.3999 26.6008 25.8999 26.4008 26.1999 26.1008C26.8999 25.4008 26.8999 24.4008 26.1999 23.7008L23.6999 21.2008C22.9999 20.5008 21.9999 20.5008 21.2999 21.2008C20.5999 21.9008 20.5999 22.9008 21.2999 23.6008L23.7999 26.1008Z" fill="#FFB729"/>
<path d="M9.4001 6.99961L6.9001 4.49961C6.2001 3.79961 5.2001 3.79961 4.5001 4.49961C3.8001 5.19961 3.8001 6.19961 4.5001 6.89961L7.0001 9.39961C7.3001 9.69961 7.8001 9.89961 8.2001 9.89961C8.6001 9.89961 9.1001 9.69961 9.4001 9.39961C10.1001 8.69961 10.1001 7.59961 9.4001 6.99961Z" fill="#FFB729"/>
</svg>
