<svg width="77" height="73" viewBox="0 0 77 73" fill="none" xmlns="http://www.w3.org/2000/svg">
<path d="M75.0997 29.1501L26.0997 29.05C25.2997 29.05 24.6997 29.55 24.4997 30.35L15.9997 62.95C15.8997 63.45 15.9997 63.95 16.2997 64.45C16.5997 64.85 17.0997 65.1501 17.5997 65.1501H31.9997C32.0997 65.1501 32.0997 65.1501 32.1997 65.1501C32.2997 65.1501 32.2997 65.1501 32.3997 65.1501H35.1997V69.25H24.6997C23.6997 69.25 22.9997 70.05 22.9997 70.95C22.9997 71.85 23.7997 72.6501 24.6997 72.6501L60.8997 72.75C61.7997 72.75 62.5997 71.9501 62.5997 71.0501C62.5997 70.1501 61.7997 69.35 60.8997 69.35H50.0997V65.25H66.5997C67.3997 65.25 67.9997 64.75 68.1997 63.95L76.5997 31.35C76.6997 30.85 76.5997 30.35 76.2997 29.85C76.0997 29.35 75.5997 29.1501 75.0997 29.1501ZM41.9997 32.4501H55.9997L53.9997 39.9501H39.9997L41.9997 32.4501ZM27.3997 32.35H38.5997L36.5997 39.85H25.3997L27.3997 32.35ZM30.9997 61.6501H19.7997L21.5997 54.6501H32.7997L30.9997 61.6501ZM22.4997 51.25L24.5997 43.25H35.7997L33.6997 51.25H22.4997ZM38.5997 69.1501V65.0501H42.3997H46.6997V69.1501H38.5997ZM48.3997 61.75H34.3997L36.1997 54.75H50.1997L48.3997 61.75ZM37.0997 51.35L39.1997 43.35H53.1997L51.0997 51.35H37.0997ZM65.2997 61.75H51.8997L53.6997 54.75H67.0997L65.2997 61.75ZM67.9997 51.4501H54.5997L56.6997 43.4501H70.0997L67.9997 51.4501ZM70.8997 40.05H57.4997L59.4997 32.55H72.8997L70.8997 40.05Z" fill="#F38235"/>
<path d="M15.2998 23.85C19.5998 23.85 23.0998 20.35 23.0998 16.05C23.0998 11.75 19.5998 8.25 15.2998 8.25C10.9998 8.25 7.49976 11.75 7.49976 16.05C7.49976 20.35 10.9998 23.85 15.2998 23.85ZM15.2998 11.65C17.6998 11.65 19.6998 13.65 19.6998 16.05C19.6998 18.45 17.6998 20.45 15.2998 20.45C12.8998 20.45 10.8998 18.45 10.8998 16.05C10.8998 13.55 12.8998 11.65 15.2998 11.65Z" fill="#F38235"/>
<path d="M16.9999 5.95V2.45C16.9999 1.55 16.1999 0.75 15.2999 0.75C14.3999 0.75 13.5999 1.55 13.5999 2.45V5.95C13.5999 6.85 14.3999 7.65 15.2999 7.65C16.1999 7.65 16.9999 6.85 16.9999 5.95Z" fill="#F38235"/>
<path d="M16.9999 29.65V26.15C16.9999 25.25 16.1999 24.45 15.2999 24.45C14.3999 24.45 13.5999 25.25 13.5999 26.15V29.65C13.5999 30.55 14.3999 31.3499 15.2999 31.3499C16.1999 31.3499 16.9999 30.55 16.9999 29.65Z" fill="#F38235"/>
<path d="M30.6998 16.05C30.6998 15.15 29.8998 14.35 28.9998 14.35H25.4998C24.5998 14.35 23.7998 15.15 23.7998 16.05C23.7998 16.95 24.5998 17.75 25.4998 17.75H28.9998C29.8998 17.75 30.6998 16.95 30.6998 16.05Z" fill="#F38235"/>
<path d="M6.89976 16.05C6.89976 15.15 6.09976 14.35 5.19976 14.35H1.69976C0.799756 14.35 -0.000244141 15.15 -0.000244141 16.05C-0.000244141 16.95 0.799756 17.75 1.69976 17.75H5.19976C6.19976 17.75 6.89976 16.95 6.89976 16.05Z" fill="#F38235"/>
<path d="M22.4997 10.55C22.8997 10.55 23.3997 10.35 23.6997 10.05L26.1997 7.55C26.8997 6.85 26.8997 5.85 26.1997 5.15C25.4997 4.45 24.4997 4.45 23.7997 5.15L21.2997 7.75C20.5997 8.45 20.5997 9.45 21.2997 10.15C21.5997 10.45 21.9997 10.55 22.4997 10.55Z" fill="#F38235"/>
<path d="M6.99985 21.95L4.49985 24.45C3.79985 25.15 3.79985 26.15 4.49985 26.85C4.79985 27.15 5.29985 27.35 5.69985 27.35C6.09985 27.35 6.59985 27.15 6.89985 26.85L9.39985 24.35C10.0999 23.65 10.0999 22.65 9.39985 21.95C8.69985 21.35 7.69985 21.35 6.99985 21.95Z" fill="#F38235"/>
<path d="M23.7997 26.85C24.0997 27.15 24.5997 27.35 24.9997 27.35C25.3997 27.35 25.8997 27.15 26.1997 26.85C26.8997 26.15 26.8997 25.15 26.1997 24.45L23.6997 21.95C22.9997 21.25 21.9997 21.25 21.2997 21.95C20.5997 22.65 20.5997 23.65 21.2997 24.35L23.7997 26.85Z" fill="#F38235"/>
<path d="M9.39985 7.74998L6.89985 5.24998C6.19985 4.54998 5.19985 4.54998 4.49985 5.24998C3.79985 5.94998 3.79985 6.94998 4.49985 7.64998L6.99985 10.15C7.29985 10.45 7.79985 10.65 8.19985 10.65C8.59985 10.65 9.09985 10.45 9.39985 10.15C10.0999 9.44998 10.0999 8.34998 9.39985 7.74998Z" fill="#F38235"/>
</svg>
