<svg width="118" height="42" viewBox="0 0 118 42" fill="none" xmlns="http://www.w3.org/2000/svg">
<path d="M115.489 37.1304H80.2149C79.5872 26.6609 70.2979 17.6522 59 17.6522C47.7021 17.6522 38.2872 26.6609 37.6596 37.1304H2.51064C1.12979 37.1304 0 38.2261 0 39.5652C0 40.9043 1.12979 42 2.51064 42H115.489C116.87 42 118 40.9043 118 39.5652C118 38.2261 116.87 37.1304 115.489 37.1304ZM58.8745 22.5217C67.4106 22.5217 74.4404 29.0956 75.0681 37.1304H42.6809C43.3085 29.0956 50.3383 22.5217 58.8745 22.5217ZM58.3723 9.73913C57.3681 9.73913 56.4894 8.88696 56.4894 7.91304V1.82609C56.4894 0.852174 57.3681 0 58.3723 0C59.3766 0 60.2553 0.852174 60.2553 1.82609V7.91304C60.2553 8.88696 59.3766 9.73913 58.3723 9.73913ZM46.1957 12.7826C45.4426 12.7826 44.8149 12.4174 44.4383 11.687L41.9277 5.72174C41.5511 4.74783 41.9277 3.77391 42.9319 3.28696C43.9362 2.92174 44.9404 3.28696 45.4426 4.26087L47.9532 10.2261C48.3298 11.2 47.9532 12.1739 46.9489 12.6609C46.6979 12.6609 46.4468 12.7826 46.1957 12.7826ZM35.2745 19.7217C34.7723 19.7217 34.2702 19.6 33.8936 19.2348L29.1234 14.6087C28.3702 13.8783 28.3702 12.7826 29.1234 12.0522C29.8766 11.3217 31.0064 11.3217 31.7596 12.0522L36.5298 16.6783C37.283 17.4087 37.283 18.5043 36.5298 19.2348C36.2787 19.6 35.7766 19.7217 35.2745 19.7217ZM28.1191 30.313C27.8681 30.313 27.617 30.313 27.366 30.1913L21.0894 27.6348C20.0851 27.2696 19.7085 26.1739 20.0851 25.2C20.4617 24.2261 21.5915 23.8609 22.5957 24.2261L28.8723 26.7826C29.8766 27.1478 30.2532 28.2435 29.8766 29.2174C29.5 29.9478 28.8723 30.313 28.1191 30.313ZM71.8043 12.7826C71.5532 12.7826 71.3021 12.7826 71.0511 12.6609C70.0468 12.2957 69.6702 11.2 70.0468 10.2261L72.683 4.13913C73.0596 3.16522 74.1894 2.8 75.1936 3.16522C76.1979 3.53044 76.5745 4.62609 76.1979 5.6L73.5617 11.687C73.1851 12.2957 72.5574 12.7826 71.8043 12.7826ZM82.6 19.8435C82.0979 19.8435 81.5957 19.7217 81.2191 19.3565C80.466 18.6261 80.466 17.5304 81.2191 16.8L85.9894 12.1739C86.7425 11.4435 87.8723 11.4435 88.6255 12.1739C89.3787 12.9043 89.3787 14 88.6255 14.7304L83.8553 19.3565C83.6043 19.7217 83.1021 19.8435 82.6 19.8435ZM89.7553 30.313C89.0021 30.313 88.3745 29.9478 87.9979 29.2174C87.6213 28.2435 87.9979 27.2696 89.0021 26.7826L95.2787 24.2261C96.283 23.8609 97.2872 24.2261 97.7894 25.2C98.166 26.1739 97.7894 27.1478 96.7851 27.6348L90.5085 30.1913C90.2574 30.313 90.0064 30.313 89.7553 30.313Z" fill="#F36135"/>
</svg>
